<svg width="219" height="239" viewBox="0 0 219 239" fill="none" xmlns="http://www.w3.org/2000/svg">
<path d="M218.674 192.956C218.674 200.796 217.4 207.264 214.852 212.36C212.5 217.26 209.266 221.18 205.15 224.12C201.23 227.06 196.722 229.02 191.626 230C186.53 231.176 181.434 231.764 176.338 231.764C168.106 231.764 161.148 230.784 155.464 228.824C149.976 226.668 145.566 223.728 142.234 220.004C139.098 216.28 136.844 211.87 135.472 206.774C134.1 201.482 133.414 195.602 133.414 189.134V136.802C133.414 133.47 133.806 129.452 134.59 124.748C135.374 120.044 137.138 115.634 139.882 111.518C142.822 107.206 147.134 103.58 152.818 100.64C158.502 97.504 166.342 95.936 176.338 95.936C189.47 95.936 199.76 99.268 207.208 105.932C214.656 112.4 218.38 122.69 218.38 136.802L218.674 192.956ZM181.042 127.394C181.042 125.63 180.748 123.866 180.16 122.102C179.768 120.338 178.494 119.456 176.338 119.456C174.182 119.456 172.81 120.338 172.222 122.102C171.83 123.866 171.634 125.63 171.634 127.394V199.718C171.634 201.678 171.928 203.638 172.516 205.598C173.104 207.362 174.476 208.244 176.632 208.244C178.592 208.244 179.768 207.362 180.16 205.598C180.748 203.638 181.042 201.678 181.042 199.718V127.394ZM85.492 103.874C85.492 111.714 84.218 118.182 81.67 123.278C79.318 128.178 76.084 132.098 71.968 135.038C68.048 137.978 63.54 140.036 58.444 141.212C53.348 142.192 48.252 142.682 43.156 142.682C34.924 142.682 27.966 141.702 22.282 139.742C16.794 137.586 12.384 134.646 9.052 130.922C5.916 127.198 3.662 122.788 2.29 117.692C0.918 112.4 0.232 106.52 0.232 100.052V47.72C0.232 44.388 0.624 40.37 1.408 35.666C2.192 30.962 3.956 26.552 6.7 22.436C9.64 18.124 13.952 14.498 19.636 11.558C25.32 8.42198 33.16 6.85398 43.156 6.85398C56.288 6.85398 66.578 10.186 74.026 16.85C81.474 23.318 85.198 33.608 85.198 47.72L85.492 103.874ZM47.86 38.312C47.86 36.548 47.566 34.784 46.978 33.02C46.586 31.256 45.312 30.374 43.156 30.374C41 30.374 39.628 31.256 39.04 33.02C38.648 34.784 38.452 36.548 38.452 38.312V110.636C38.452 112.596 38.746 114.556 39.334 116.516C39.922 118.28 41.294 119.162 43.45 119.162C45.41 119.162 46.586 118.28 46.978 116.516C47.566 114.556 47.86 112.596 47.86 110.636V38.312ZM72.262 238.526H40.51L146.644 0.0919809H177.808L72.262 238.526Z" fill="black"/>
</svg>
