<svg width="138" height="184" viewBox="0 0 138 184" fill="none" xmlns="http://www.w3.org/2000/svg">
<path d="M133.076 107.676V124.104C133.076 130.517 132.089 135.796 130.116 139.94C128.143 143.985 125.528 147.192 122.272 149.56C119.115 151.829 115.464 153.408 111.32 154.296C107.275 155.184 103.18 155.628 99.036 155.628C92.82 155.628 87.5907 154.839 83.348 153.26C79.204 151.583 75.8493 149.215 73.284 146.156C70.8173 143.097 69.0413 139.447 67.956 135.204C66.8707 130.961 66.328 126.176 66.328 120.848V73.34C66.328 71.4653 66.4267 69.344 66.624 66.976C66.8213 64.608 67.3147 62.24 68.104 59.872C68.8933 57.504 69.9787 55.1853 71.36 52.916C72.7413 50.6467 74.6653 48.6733 77.132 46.996C79.5987 45.22 82.608 43.7893 86.16 42.704C89.712 41.6187 94.004 41.076 99.036 41.076C104.265 41.076 108.952 41.668 113.096 42.852C117.339 44.036 120.94 45.96 123.9 48.624C126.86 51.1893 129.129 54.544 130.708 58.688C132.287 62.7333 133.076 67.6173 133.076 73.34V84.884H104.808V68.16C104.808 67.272 104.759 66.3347 104.66 65.348C104.561 64.3613 104.315 63.4733 103.92 62.684C103.525 61.8947 102.983 61.2533 102.292 60.76C101.7 60.168 100.861 59.872 99.776 59.872C97.6053 59.872 96.1747 60.8093 95.484 62.684C94.892 64.46 94.596 66.236 94.596 68.012V127.804C94.596 128.692 94.6453 129.679 94.744 130.764C94.8427 131.751 95.0893 132.688 95.484 133.576C95.8787 134.365 96.4213 135.056 97.112 135.648C97.8027 136.141 98.6907 136.388 99.776 136.388C101.749 136.388 103.081 135.451 103.772 133.576C104.463 131.603 104.808 129.679 104.808 127.804V107.676H133.076Z" fill="black"/>
<circle cx="30.5" cy="30.5" r="22.5" stroke="black" stroke-width="16"/>
</svg>
